<svg viewBox="0 0 512 512" xmlns="http://www.w3.org/2000/svg"><circle cx="255.5" cy="256" fill="#4781ec" r="190"/><rect fill="none" height="59.59" rx="17.88" stroke="#fff" stroke-linecap="round" stroke-linejoin="round" stroke-width="5" width="35.76" x="237.05" y="146"/><circle cx="254.93" cy="341.65" fill="#fff" r="21.85"/><path d="m185.4 338.17a11.39 11.39 0 0 1 -.76-22.76 3.49 3.49 0 0 0 3.27-3.49v-72.5a65.16 65.16 0 0 1 65.09-65.09h2.92 1.39a68 68 0 0 1 66.62 68v69.58a3.49 3.49 0 0 0 3.27 3.49 11.39 11.39 0 0 1 -.76 22.76z" fill="#4781ec"/><path d="m255.92 177.83h1.32a64.51 64.51 0 0 1 63.19 64.5v69.58a7 7 0 0 0 6.54 7 7.89 7.89 0 0 1 -.53 15.76h-141a7.89 7.89 0 0 1 -.53-15.76 7 7 0 0 0 6.54-7v-72.5a61.65 61.65 0 0 1 61.55-61.58zm0-7h-2.92a68.59 68.59 0 0 0 -68.59 68.59v72.5a14.89 14.89 0 0 0 1 29.75h141a14.89 14.89 0 0 0 1-29.75v-69.58a71.51 71.51 0 0 0 -70.05-71.49h-1.46z" fill="#fff"/></svg>