<svg width="23" height="26" viewBox="0 0 23 26" fill="none" xmlns="http://www.w3.org/2000/svg">
<path d="M7.25101 25.8544C9.18276 25.8011 8.92266 24.841 9.75714 24.4277C10.4399 24.0917 11.2364 24.0837 11.9246 24.4117C12.9 24.8757 12.6182 25.9104 14.7829 25.8544C16.162 25.8197 19.359 24.401 20.2314 23.0223C21.1607 21.5502 21.7215 19.8781 21.9437 18.1554L22.2011 16.1419C22.9299 10.459 18.4676 5.42944 12.694 5.42944H9.58374C3.83453 5.42944 -0.622312 10.4217 0.0712769 16.0886L0.241966 17.4833C0.496643 19.5714 1.24171 21.5822 2.49071 23.2836C3.43897 24.585 5.99929 25.8891 7.25101 25.8544Z" fill="#4781EC"/>
<path d="M14.9619 8.12301V16.4541C14.9619 16.6007 15.1299 16.6888 15.2518 16.6034L20.1774 13.1526C20.2695 13.0886 20.283 12.9552 20.2017 12.8752L15.2762 7.99767C15.1597 7.87767 14.9619 7.96034 14.9619 8.12301Z" fill="white"/>
<path d="M14.7935 20.3371L11.2091 16.7529C11.1711 16.7156 11.1088 16.7156 11.0709 16.7529L7.49458 20.3291C7.43227 20.3904 7.3266 20.3477 7.3266 20.2597V7.72581C7.3266 7.64047 7.22094 7.59514 7.16134 7.65647L1.91066 12.846C1.89169 12.8647 1.88086 12.8887 1.88086 12.9154V20.4597C1.88086 20.4864 1.89169 20.5104 1.91066 20.5291L6.98794 25.564C7.20197 25.7747 7.48917 25.8947 7.7899 25.8947H14.4901C14.7908 25.8947 15.078 25.7773 15.292 25.564L20.223 20.6731C20.2664 20.6304 20.2609 20.5584 20.2095 20.5237L15.1105 17.0382C15.0455 16.9929 14.9588 17.0409 14.9588 17.1183V20.2704C14.9615 20.3557 14.8558 20.3984 14.7935 20.3371Z" fill="white"/>
<path d="M20.3991 19.6356V14.1233C20.3991 14.006 20.2663 13.9393 20.1715 14.006L16.2294 16.7661C16.1481 16.8221 16.1481 16.9448 16.2294 17.0008L20.1715 19.7529C20.2663 19.8222 20.3991 19.7529 20.3991 19.6356Z" fill="white"/>
<path d="M13.9971 5.94428C13.9971 8.34439 12.0166 10.2912 10.7486 10.2912C9.48068 10.2912 7.37012 8.34439 7.37012 5.94428C7.37012 3.54417 10.242 0 10.7486 0C11.323 0 13.9971 3.5415 13.9971 5.94428Z" fill="#4781EC"/>
<path d="M10.7731 0.877374V8.16572C10.7731 8.24572 10.6891 8.29639 10.616 8.26172C10.0931 8.00038 8.41054 7.08833 7.99329 5.96828C7.63836 5.01357 9.88714 1.77342 10.578 0.816038C10.6376 0.7307 10.7731 0.773369 10.7731 0.877374Z" fill="white"/>
<path d="M16.5898 17.0409L15.3923 17.4142C15.3896 17.4142 15.3869 17.4169 15.3842 17.4169C14.883 17.6356 14.4089 17.9129 13.9727 18.2436L13.8507 18.337C13.6611 18.5263 13.5527 18.7823 13.5527 19.049L13.5283 20.0757C13.5283 20.3424 13.634 20.5984 13.8263 20.7877L14.6716 21.6278C14.8613 21.8171 15.1187 21.9238 15.3896 21.9238H16.5871C16.8554 21.9238 17.1155 21.8171 17.3051 21.6278L18.1504 20.7877C18.3401 20.5984 18.6218 20.0864 18.695 19.7957L18.9199 18.6223C18.9659 18.329 19.0797 18.0036 18.9199 17.7103L18.4945 17.0276C18.0935 16.6275 17.8605 16.7662 16.5898 17.0409ZM15.9857 20.4891C15.4248 20.4891 14.9724 20.0384 14.9724 19.481V19.4757C14.9724 18.9183 15.4276 18.4676 15.9857 18.4676C16.5465 18.4676 16.999 18.9183 16.999 19.4757V19.481C16.999 20.0384 16.5465 20.4891 15.9857 20.4891Z" fill="#4781EC"/>
<path d="M3.7368 16.9155L3.31143 17.6009C3.15158 17.8942 3.26537 18.2196 3.31143 18.5129L3.53631 19.6863C3.60946 19.977 3.89124 20.489 4.08089 20.6783L4.9262 21.5184C5.11585 21.7077 5.37325 21.8144 5.64418 21.8144H6.8417C7.10993 21.8144 7.37001 21.7077 7.55967 21.5184L8.40498 20.6783C8.59463 20.489 8.70302 20.233 8.70302 19.9663L8.67862 18.9396C8.67862 18.6729 8.57297 18.4169 8.3806 18.2276L8.26139 18.1342C7.8279 17.8035 7.35376 17.5262 6.84982 17.3075C6.84711 17.3075 6.84441 17.3048 6.8417 17.3048L5.64418 16.9315C4.3735 16.6568 4.14049 16.5181 3.7368 16.9155ZM5.23236 19.3716V19.3663C5.23236 18.8089 5.68752 18.3582 6.24565 18.3582C6.80648 18.3582 7.25894 18.8089 7.25894 19.3663V19.3716C7.25894 19.929 6.80377 20.3797 6.24565 20.3797C5.68752 20.3797 5.23236 19.929 5.23236 19.3716Z" fill="#4781EC"/>
</svg>
