<svg width="28" height="21" viewBox="0 0 28 21" fill="none" xmlns="http://www.w3.org/2000/svg">
<path d="M27.9998 15.7401H3.18848L5.99977 13.068V2.19393L4.15133 0.447211L4.5436 0.0759277L6.55252 1.97735V13.2846L4.51983 15.217H27.9998V15.7401Z" fill="#BABABA" fill-opacity="0.8"/>
<path d="M-0.000298977 1.30884L4.81396 1.30884V0.000908494L-0.000298977 0.000908494V1.30884Z" fill="#BABABA" fill-opacity="0.8"/>
<path d="M9.62269 16.5559H7.67915L6.30322 17.8582V19.7006L7.67915 21.0001H9.62269L10.9986 19.7006V17.8582L9.62269 16.5559Z" fill="#BABABA" fill-opacity="0.8"/>
<path d="M24.8737 16.5559H22.9301L21.5542 17.8582V19.7006L22.9301 21.0001H24.8737L26.2496 19.7006V17.8582L24.8737 16.5559Z" fill="#BABABA" fill-opacity="0.8"/>
<path d="M20.823 7.3271L15.242 2.00537L8.11865 2.01943L16.1008 7.36366L8.22266 12.6516H15.2598L15.2271 12.6235L20.823 7.3271Z" fill="#BABABA" fill-opacity="0.8"/>
<path d="M7.62842 2.95337V11.791L14.2198 7.36658L7.62842 2.95337Z" fill="#BABABA" fill-opacity="0.8"/>
<path d="M26.4068 1.81421L16.8853 1.8339L21.6193 6.34555L26.4068 1.81421Z" fill="#BABABA" fill-opacity="0.8"/>
<path d="M16.6685 12.8204H21.7026L24.193 10.4633L21.6818 8.07251L16.6685 12.8204Z" fill="#BABABA" fill-opacity="0.8"/>
<path d="M27.4799 2.38525L22.3447 7.2485L24.8826 9.67028L27.4799 7.20912V2.38525Z" fill="#BABABA" fill-opacity="0.8"/>
</svg>
